<mxfile host="Electron" modified="2025-02-07T14:46:31.991Z" agent="Mozilla/5.0 (Windows NT 10.0; Win64; x64) AppleWebKit/537.36 (KHTML, like Gecko) draw.io/21.5.0 Chrome/112.0.5615.204 Electron/24.5.1 Safari/537.36" etag="a93jdw4Mq9Iq4o7IGfMU" version="21.5.0" type="device">
  <diagram name="第 1 页" id="nJRzv5rlB3VEnub_vDUY">
    <mxGraphModel dx="2243" dy="818" grid="1" gridSize="10" guides="1" tooltips="1" connect="1" arrows="1" fold="1" page="1" pageScale="1" pageWidth="827" pageHeight="1169" math="0" shadow="0">
      <root>
        <mxCell id="0" />
        <mxCell id="1" parent="0" />
        <mxCell id="L7PPIbatm0o-3SstzBcX-79" value="" style="shape=curlyBracket;whiteSpace=wrap;html=1;rounded=1;labelPosition=left;verticalLabelPosition=middle;align=right;verticalAlign=middle;rotation=90;size=0.5;" parent="1" vertex="1">
          <mxGeometry x="430.66" y="43.66" width="22.63" height="635" as="geometry" />
        </mxCell>
        <mxCell id="L7PPIbatm0o-3SstzBcX-80" value="&lt;font style=&quot;font-size: 16px;&quot;&gt;VLEN =&amp;nbsp; &lt;font style=&quot;font-size: 16px;&quot; color=&quot;#ff0000&quot;&gt;128 &lt;/font&gt;bits SEW = 32 bits&lt;/font&gt;" style="text;strokeColor=none;align=center;fillColor=none;html=1;verticalAlign=middle;whiteSpace=wrap;rounded=0;" parent="1" vertex="1">
          <mxGeometry x="384" y="305" width="130" height="30" as="geometry" />
        </mxCell>
        <mxCell id="2B8QoLhaIMbZjg2y5yDT-64" value="&lt;font style=&quot;font-size: 16px;&quot;&gt;c0&lt;/font&gt;" style="rounded=0;whiteSpace=wrap;html=1;fillColor=#e1d5e7;strokeColor=#9673a6;" parent="1" vertex="1">
          <mxGeometry x="604" y="402" width="160" height="30" as="geometry" />
        </mxCell>
        <mxCell id="2B8QoLhaIMbZjg2y5yDT-66" value="&lt;font style=&quot;font-size: 16px;&quot;&gt;c1&lt;/font&gt;" style="rounded=0;whiteSpace=wrap;html=1;fillColor=#e1d5e7;strokeColor=#9673a6;" parent="1" vertex="1">
          <mxGeometry x="444" y="402" width="160" height="30" as="geometry" />
        </mxCell>
        <mxCell id="2B8QoLhaIMbZjg2y5yDT-68" value="&lt;font style=&quot;font-size: 16px;&quot;&gt;c2&lt;/font&gt;" style="rounded=0;whiteSpace=wrap;html=1;fillColor=#e1d5e7;strokeColor=#9673a6;" parent="1" vertex="1">
          <mxGeometry x="284" y="402" width="160" height="30" as="geometry" />
        </mxCell>
        <mxCell id="2B8QoLhaIMbZjg2y5yDT-70" value="&lt;font style=&quot;font-size: 16px;&quot;&gt;c3&lt;/font&gt;" style="rounded=0;whiteSpace=wrap;html=1;fillColor=#e1d5e7;strokeColor=#9673a6;" parent="1" vertex="1">
          <mxGeometry x="125" y="402" width="160" height="30" as="geometry" />
        </mxCell>
        <mxCell id="2B8QoLhaIMbZjg2y5yDT-78" value="LMUL = 2" style="text;strokeColor=none;align=left;fillColor=none;html=1;verticalAlign=middle;whiteSpace=wrap;rounded=0;" parent="1" vertex="1">
          <mxGeometry x="-40" y="430" width="60" height="30" as="geometry" />
        </mxCell>
        <mxCell id="s7WkYnm8fBZOIUn7N5ov-1" value="&lt;span style=&quot;font-size: 16px;&quot;&gt;c4&lt;/span&gt;" style="rounded=0;whiteSpace=wrap;html=1;fillColor=#e1d5e7;strokeColor=#9673a6;" vertex="1" parent="1">
          <mxGeometry x="603" y="449" width="160" height="30" as="geometry" />
        </mxCell>
        <mxCell id="s7WkYnm8fBZOIUn7N5ov-2" value="&lt;font style=&quot;font-size: 16px;&quot;&gt;c5&lt;/font&gt;" style="rounded=0;whiteSpace=wrap;html=1;fillColor=#e1d5e7;strokeColor=#9673a6;" vertex="1" parent="1">
          <mxGeometry x="443" y="449" width="160" height="30" as="geometry" />
        </mxCell>
        <mxCell id="s7WkYnm8fBZOIUn7N5ov-3" value="&lt;font style=&quot;font-size: 16px;&quot;&gt;c6&lt;/font&gt;" style="rounded=0;whiteSpace=wrap;html=1;fillColor=#e1d5e7;strokeColor=#9673a6;" vertex="1" parent="1">
          <mxGeometry x="283" y="449" width="160" height="30" as="geometry" />
        </mxCell>
        <mxCell id="s7WkYnm8fBZOIUn7N5ov-4" value="&lt;font style=&quot;font-size: 16px;&quot;&gt;c7&lt;/font&gt;" style="rounded=0;whiteSpace=wrap;html=1;fillColor=#e1d5e7;strokeColor=#9673a6;" vertex="1" parent="1">
          <mxGeometry x="124" y="449" width="160" height="30" as="geometry" />
        </mxCell>
        <mxCell id="s7WkYnm8fBZOIUn7N5ov-5" value="" style="shape=curlyBracket;whiteSpace=wrap;html=1;rounded=1;labelPosition=left;verticalLabelPosition=middle;align=right;verticalAlign=middle;" vertex="1" parent="1">
          <mxGeometry x="30" y="420" width="20" height="50" as="geometry" />
        </mxCell>
        <mxCell id="s7WkYnm8fBZOIUn7N5ov-6" value="" style="shape=curlyBracket;whiteSpace=wrap;html=1;rounded=1;labelPosition=left;verticalLabelPosition=middle;align=right;verticalAlign=middle;rotation=90;size=0.5;" vertex="1" parent="1">
          <mxGeometry x="427.66" y="249.66" width="22.63" height="635" as="geometry" />
        </mxCell>
        <mxCell id="s7WkYnm8fBZOIUn7N5ov-7" value="&lt;font style=&quot;font-size: 16px;&quot;&gt;VLEN =&amp;nbsp; &lt;font style=&quot;font-size: 16px;&quot; color=&quot;#ff0000&quot;&gt;128 &lt;/font&gt;bits&lt;br&gt;SEW = 32 bits&lt;br&gt;&lt;/font&gt;" style="text;strokeColor=none;align=center;fillColor=none;html=1;verticalAlign=middle;whiteSpace=wrap;rounded=0;" vertex="1" parent="1">
          <mxGeometry x="381" y="511" width="130" height="30" as="geometry" />
        </mxCell>
        <mxCell id="s7WkYnm8fBZOIUn7N5ov-8" value="&lt;font style=&quot;font-size: 16px;&quot;&gt;c0&lt;/font&gt;" style="rounded=0;whiteSpace=wrap;html=1;fillColor=#e1d5e7;strokeColor=#9673a6;" vertex="1" parent="1">
          <mxGeometry x="601" y="608" width="160" height="30" as="geometry" />
        </mxCell>
        <mxCell id="s7WkYnm8fBZOIUn7N5ov-9" value="&lt;font style=&quot;font-size: 16px;&quot;&gt;c1&lt;/font&gt;" style="rounded=0;whiteSpace=wrap;html=1;fillColor=#e1d5e7;strokeColor=#9673a6;" vertex="1" parent="1">
          <mxGeometry x="441" y="608" width="160" height="30" as="geometry" />
        </mxCell>
        <mxCell id="s7WkYnm8fBZOIUn7N5ov-10" value="&lt;font style=&quot;font-size: 16px;&quot;&gt;c2&lt;/font&gt;" style="rounded=0;whiteSpace=wrap;html=1;fillColor=#e1d5e7;strokeColor=#9673a6;" vertex="1" parent="1">
          <mxGeometry x="281" y="608" width="160" height="30" as="geometry" />
        </mxCell>
        <mxCell id="s7WkYnm8fBZOIUn7N5ov-11" value="&lt;font style=&quot;font-size: 16px;&quot;&gt;c3&lt;/font&gt;" style="rounded=0;whiteSpace=wrap;html=1;fillColor=#e1d5e7;strokeColor=#9673a6;" vertex="1" parent="1">
          <mxGeometry x="122" y="608" width="160" height="30" as="geometry" />
        </mxCell>
        <mxCell id="s7WkYnm8fBZOIUn7N5ov-12" value="LMUL = 4" style="text;strokeColor=none;align=left;fillColor=none;html=1;verticalAlign=middle;whiteSpace=wrap;rounded=0;" vertex="1" parent="1">
          <mxGeometry x="-37" y="678.66" width="60" height="30" as="geometry" />
        </mxCell>
        <mxCell id="s7WkYnm8fBZOIUn7N5ov-13" value="&lt;span style=&quot;font-size: 16px;&quot;&gt;c4&lt;/span&gt;" style="rounded=0;whiteSpace=wrap;html=1;fillColor=#e1d5e7;strokeColor=#9673a6;" vertex="1" parent="1">
          <mxGeometry x="600" y="655" width="160" height="30" as="geometry" />
        </mxCell>
        <mxCell id="s7WkYnm8fBZOIUn7N5ov-14" value="&lt;font style=&quot;font-size: 16px;&quot;&gt;c5&lt;/font&gt;" style="rounded=0;whiteSpace=wrap;html=1;fillColor=#e1d5e7;strokeColor=#9673a6;" vertex="1" parent="1">
          <mxGeometry x="440" y="655" width="160" height="30" as="geometry" />
        </mxCell>
        <mxCell id="s7WkYnm8fBZOIUn7N5ov-15" value="&lt;font style=&quot;font-size: 16px;&quot;&gt;c6&lt;/font&gt;" style="rounded=0;whiteSpace=wrap;html=1;fillColor=#e1d5e7;strokeColor=#9673a6;" vertex="1" parent="1">
          <mxGeometry x="280" y="655" width="160" height="30" as="geometry" />
        </mxCell>
        <mxCell id="s7WkYnm8fBZOIUn7N5ov-16" value="&lt;font style=&quot;font-size: 16px;&quot;&gt;c7&lt;/font&gt;" style="rounded=0;whiteSpace=wrap;html=1;fillColor=#e1d5e7;strokeColor=#9673a6;" vertex="1" parent="1">
          <mxGeometry x="121" y="655" width="160" height="30" as="geometry" />
        </mxCell>
        <mxCell id="s7WkYnm8fBZOIUn7N5ov-17" value="" style="shape=curlyBracket;whiteSpace=wrap;html=1;rounded=1;labelPosition=left;verticalLabelPosition=middle;align=right;verticalAlign=middle;" vertex="1" parent="1">
          <mxGeometry x="30" y="626" width="20" height="144" as="geometry" />
        </mxCell>
        <mxCell id="s7WkYnm8fBZOIUn7N5ov-18" value="&lt;font style=&quot;font-size: 16px;&quot;&gt;c8&lt;/font&gt;" style="rounded=0;whiteSpace=wrap;html=1;fillColor=#e1d5e7;strokeColor=#9673a6;" vertex="1" parent="1">
          <mxGeometry x="599" y="704" width="160" height="30" as="geometry" />
        </mxCell>
        <mxCell id="s7WkYnm8fBZOIUn7N5ov-19" value="&lt;font style=&quot;font-size: 16px;&quot;&gt;c9&lt;/font&gt;" style="rounded=0;whiteSpace=wrap;html=1;fillColor=#e1d5e7;strokeColor=#9673a6;" vertex="1" parent="1">
          <mxGeometry x="439" y="704" width="160" height="30" as="geometry" />
        </mxCell>
        <mxCell id="s7WkYnm8fBZOIUn7N5ov-20" value="&lt;font style=&quot;font-size: 16px;&quot;&gt;c10&lt;/font&gt;" style="rounded=0;whiteSpace=wrap;html=1;fillColor=#e1d5e7;strokeColor=#9673a6;" vertex="1" parent="1">
          <mxGeometry x="279" y="704" width="160" height="30" as="geometry" />
        </mxCell>
        <mxCell id="s7WkYnm8fBZOIUn7N5ov-21" value="&lt;font style=&quot;font-size: 16px;&quot;&gt;c11&lt;/font&gt;" style="rounded=0;whiteSpace=wrap;html=1;fillColor=#e1d5e7;strokeColor=#9673a6;" vertex="1" parent="1">
          <mxGeometry x="120" y="704" width="160" height="30" as="geometry" />
        </mxCell>
        <mxCell id="s7WkYnm8fBZOIUn7N5ov-22" value="&lt;span style=&quot;font-size: 16px;&quot;&gt;c12&lt;/span&gt;" style="rounded=0;whiteSpace=wrap;html=1;fillColor=#e1d5e7;strokeColor=#9673a6;" vertex="1" parent="1">
          <mxGeometry x="598" y="751" width="160" height="30" as="geometry" />
        </mxCell>
        <mxCell id="s7WkYnm8fBZOIUn7N5ov-23" value="&lt;font style=&quot;font-size: 16px;&quot;&gt;c13&lt;/font&gt;" style="rounded=0;whiteSpace=wrap;html=1;fillColor=#e1d5e7;strokeColor=#9673a6;" vertex="1" parent="1">
          <mxGeometry x="438" y="751" width="160" height="30" as="geometry" />
        </mxCell>
        <mxCell id="s7WkYnm8fBZOIUn7N5ov-24" value="&lt;font style=&quot;font-size: 16px;&quot;&gt;c14&lt;/font&gt;" style="rounded=0;whiteSpace=wrap;html=1;fillColor=#e1d5e7;strokeColor=#9673a6;" vertex="1" parent="1">
          <mxGeometry x="278" y="751" width="160" height="30" as="geometry" />
        </mxCell>
        <mxCell id="s7WkYnm8fBZOIUn7N5ov-25" value="&lt;font style=&quot;font-size: 16px;&quot;&gt;c15&lt;/font&gt;" style="rounded=0;whiteSpace=wrap;html=1;fillColor=#e1d5e7;strokeColor=#9673a6;" vertex="1" parent="1">
          <mxGeometry x="119" y="751" width="160" height="30" as="geometry" />
        </mxCell>
        <mxCell id="s7WkYnm8fBZOIUn7N5ov-26" value="V2*n" style="text;strokeColor=none;align=left;fillColor=none;html=1;verticalAlign=middle;whiteSpace=wrap;rounded=0;" vertex="1" parent="1">
          <mxGeometry x="59" y="402" width="60" height="30" as="geometry" />
        </mxCell>
        <mxCell id="s7WkYnm8fBZOIUn7N5ov-27" value="V2*n+1" style="text;strokeColor=none;align=left;fillColor=none;html=1;verticalAlign=middle;whiteSpace=wrap;rounded=0;" vertex="1" parent="1">
          <mxGeometry x="59" y="449" width="60" height="30" as="geometry" />
        </mxCell>
        <mxCell id="s7WkYnm8fBZOIUn7N5ov-29" value="V4*n" style="text;strokeColor=none;align=left;fillColor=none;html=1;verticalAlign=middle;whiteSpace=wrap;rounded=0;" vertex="1" parent="1">
          <mxGeometry x="59" y="608" width="60" height="30" as="geometry" />
        </mxCell>
        <mxCell id="s7WkYnm8fBZOIUn7N5ov-30" value="V4*n+1" style="text;strokeColor=none;align=left;fillColor=none;html=1;verticalAlign=middle;whiteSpace=wrap;rounded=0;" vertex="1" parent="1">
          <mxGeometry x="59" y="655" width="60" height="30" as="geometry" />
        </mxCell>
        <mxCell id="s7WkYnm8fBZOIUn7N5ov-31" value="V4*n+2" style="text;strokeColor=none;align=left;fillColor=none;html=1;verticalAlign=middle;whiteSpace=wrap;rounded=0;" vertex="1" parent="1">
          <mxGeometry x="59" y="704" width="60" height="30" as="geometry" />
        </mxCell>
        <mxCell id="s7WkYnm8fBZOIUn7N5ov-32" value="V4*n+3" style="text;strokeColor=none;align=left;fillColor=none;html=1;verticalAlign=middle;whiteSpace=wrap;rounded=0;" vertex="1" parent="1">
          <mxGeometry x="59" y="751" width="60" height="30" as="geometry" />
        </mxCell>
      </root>
    </mxGraphModel>
  </diagram>
</mxfile>
